<mxfile host="app.diagrams.net" modified="2023-03-19T15:42:45.340Z" agent="5.0 (Windows NT 10.0; Win64; x64) AppleWebKit/537.36 (KHTML, like Gecko) Chrome/111.0.0.0 Safari/537.36" etag="3O4V7BgKU4iPkD-c9PTh" version="21.0.8" type="github">
  <diagram name="第 1 页" id="RGszfC1oz2rYYeR4ST6M">
    <mxGraphModel dx="1562" dy="829" grid="1" gridSize="10" guides="1" tooltips="1" connect="1" arrows="1" fold="1" page="1" pageScale="1" pageWidth="827" pageHeight="1169" math="0" shadow="0">
      <root>
        <mxCell id="0" />
        <mxCell id="1" parent="0" />
        <mxCell id="hNdGUMSLYMpEDPjgAYvP-1" value="中通服1" style="rounded=0;whiteSpace=wrap;html=1;" parent="1" vertex="1">
          <mxGeometry x="320" y="290" width="120" height="60" as="geometry" />
        </mxCell>
      </root>
    </mxGraphModel>
  </diagram>
</mxfile>
